<?xml version="1.0" standalone="no"?>
<!DOCTYPE svg PUBLIC "-//W3C//DTD SVG 20010904//EN"
 "http://www.w3.org/TR/2001/REC-SVG-20010904/DTD/svg10.dtd">
<svg version="1.0" xmlns="http://www.w3.org/2000/svg"
 width="512.000000pt" height="512.000000pt" viewBox="0 0 512.000000 512.000000"
 preserveAspectRatio="xMidYMid meet">
<metadata>
Created by potrace 1.14, written by Peter Selinger 2001-2017
</metadata>
<g transform="translate(0.000000,512.000000) scale(0.100000,-0.100000)"
fill="#000000" stroke="none">
<path d="M2475 5105 c-28 -6 -61 -17 -75 -25 -29 -15 -119 -87 -137 -109 -7
-8 -13 -11 -13 -6 0 5 -9 0 -20 -11 -10 -10 -25 -24 -32 -29 -71 -56 -114 -91
-116 -97 -2 -5 -8 -8 -13 -8 -6 0 -21 -10 -34 -22 -28 -27 -37 -34 -90 -73
-22 -17 -44 -36 -48 -42 -4 -7 -12 -13 -17 -13 -6 0 -18 -7 -27 -16 -10 -8
-36 -29 -58 -45 -60 -45 -117 -92 -137 -111 -10 -10 -22 -18 -28 -18 -5 0 -13
-6 -17 -13 -4 -6 -24 -24 -43 -38 -19 -15 -46 -36 -60 -48 -14 -11 -30 -25
-36 -29 -5 -5 -32 -26 -59 -46 -43 -33 -93 -73 -164 -131 -13 -11 -33 -28 -43
-37 -10 -10 -18 -15 -18 -12 0 3 -6 -1 -13 -8 -22 -21 -95 -81 -202 -166 -288
-227 -353 -281 -348 -286 4 -3 2 -6 -3 -6 -6 0 -21 -18 -33 -40 -20 -36 -23
-56 -24 -170 -1 -81 2 -130 8 -130 7 0 7 -3 0 -8 -5 -4 -10 -20 -10 -37 0 -16
5 -33 10 -37 7 -5 7 -8 0 -8 -6 0 -10 -48 -10 -125 0 -77 4 -125 10 -125 7 0
7 -3 0 -8 -6 -4 -10 -55 -10 -117 0 -62 4 -113 10 -117 7 -5 7 -8 0 -8 -6 0
-10 -45 -10 -115 0 -70 4 -115 10 -115 7 0 7 -3 0 -8 -6 -4 -10 -55 -10 -117
0 -62 4 -113 10 -117 7 -5 7 -8 0 -8 -6 0 -10 -45 -10 -115 0 -70 4 -115 10
-115 7 0 7 -3 0 -8 -5 -4 -10 -34 -10 -67 0 -33 5 -63 10 -67 7 -5 7 -8 0 -8
-5 0 -10 -16 -10 -35 0 -19 4 -35 9 -35 6 0 5 -5 -1 -11 -6 -6 -7 -26 -2 -52
4 -23 5 -45 3 -49 -3 -5 -2 -8 3 -8 4 0 9 -12 9 -28 1 -15 7 -40 14 -57 7 -16
13 -33 12 -37 -1 -5 3 -8 8 -8 6 0 10 -6 10 -14 0 -17 50 -69 89 -92 17 -10
31 -22 31 -26 0 -4 7 -8 15 -8 8 0 15 -4 15 -8 0 -4 21 -24 47 -44 111 -84
217 -166 241 -188 9 -8 50 -39 90 -69 39 -30 72 -58 72 -62 0 -5 6 -9 13 -9 6
0 35 -20 62 -44 27 -25 51 -43 53 -41 2 1 13 -7 26 -19 30 -29 64 -57 106 -86
19 -14 42 -32 52 -40 9 -8 23 -20 30 -25 7 -6 54 -42 103 -80 50 -38 95 -74
101 -80 6 -5 26 -21 44 -35 18 -14 82 -63 141 -110 59 -47 145 -114 191 -149
46 -36 90 -71 98 -78 8 -7 44 -35 80 -63 36 -27 70 -54 77 -60 7 -5 16 -10 20
-10 4 0 21 -13 36 -30 55 -58 130 -57 197 4 22 20 44 36 50 36 5 0 21 11 35
25 14 14 25 23 25 21 0 -7 32 18 67 51 13 12 23 20 23 18 0 -3 9 3 19 13 11 9
26 22 33 27 7 6 33 26 58 45 25 19 47 37 50 40 3 3 23 18 45 35 22 16 42 32
45 35 3 3 25 21 50 40 25 19 47 38 48 42 2 5 8 8 13 8 5 0 17 8 27 17 10 10
60 50 110 88 51 39 92 73 92 78 0 4 6 7 13 7 7 0 26 14 42 30 16 17 34 30 41
30 7 0 17 6 21 13 4 7 60 53 123 102 63 49 123 97 133 107 10 10 21 18 25 18
4 0 25 16 47 35 51 44 54 47 89 69 16 10 39 29 51 42 12 13 25 24 29 24 4 0
13 6 20 12 7 7 48 40 91 73 43 33 113 88 156 122 43 35 81 63 84 63 9 0 85 84
86 95 0 2 7 21 15 40 8 20 12 40 9 45 -4 6 -1 10 5 10 7 0 10 7 7 15 -4 8 -2
17 3 20 4 3 7 13 6 22 -2 10 0 32 4 50 5 19 3 36 -3 42 -6 6 -7 11 -1 11 5 0
9 23 9 50 0 28 -3 50 -7 50 -3 0 -4 8 -2 18 9 38 9 142 -1 142 -7 0 -7 3 0 8
6 4 10 55 10 117 0 62 -4 113 -10 117 -7 5 -7 8 0 8 6 0 10 45 10 115 0 70 -4
115 -10 115 -7 0 -7 3 0 8 6 4 10 39 10 77 0 39 -4 73 -10 77 -7 5 -7 8 0 8 6
0 10 45 10 115 0 70 -4 115 -10 115 -7 0 -7 3 0 8 6 4 10 30 10 57 0 28 -4 53
-10 57 -7 5 -7 8 0 8 6 0 10 25 10 55 0 30 -3 55 -7 55 -3 0 -4 8 -2 18 9 38
8 142 -1 146 -7 3 -7 5 0 5 14 1 10 210 -5 257 -15 45 -131 164 -159 164 -5 0
-11 3 -13 8 -3 7 -43 41 -98 82 -18 14 -59 45 -90 70 -31 25 -69 54 -85 65
-15 11 -35 27 -44 35 -9 9 -43 36 -76 60 -33 25 -62 48 -65 51 -3 3 -77 61
-165 128 -88 68 -166 130 -172 139 -7 9 -13 12 -13 7 0 -6 -11 3 -25 18 -14
15 -29 27 -33 27 -4 0 -18 10 -32 23 -14 12 -41 34 -60 47 -19 13 -40 29 -46
35 -6 5 -26 21 -44 35 -28 21 -160 124 -195 152 -5 5 -39 30 -75 58 -36 27
-75 59 -87 70 -12 11 -26 20 -30 20 -5 0 -16 8 -25 18 -18 19 -25 24 -83 67
-22 17 -41 33 -43 38 -2 4 -8 7 -14 7 -6 0 -18 8 -27 18 -47 53 -169 79 -266
57z"/>
</g>
</svg>
